<svg width="30" height="42" viewBox="0 0 30 42" fill="none" xmlns="http://www.w3.org/2000/svg">
<path d="M5.94 40H9.21C10.4 40 11.25 39.22 11.25 38.12C11.25 37.37 10.79 36.75 10 36.35C10.62 35.99 10.98 35.57 10.98 34.84C10.98 33.84 10.2 33.13 9.09 33.13H5.94V40ZM6.72 36.04V33.84H8.89C9.65 33.84 10.19 34.3 10.19 34.94C10.19 35.58 9.65 36.04 8.89 36.04H6.72ZM6.72 39.29V36.75H9.01C9.86 36.75 10.46 37.28 10.46 38.02C10.46 38.76 9.86 39.29 9.01 39.29H6.72ZM14.6764 34.71C14.1764 34.71 13.5564 34.84 12.8164 35.21L13.1164 35.82C13.5864 35.58 14.1064 35.35 14.6264 35.35C15.7464 35.35 16.0264 36.15 16.0264 36.85V37.04C15.4964 36.87 14.9064 36.75 14.3464 36.75C13.2364 36.75 12.3164 37.44 12.3164 38.47C12.3164 39.49 13.1164 40.12 14.2064 40.12C14.8864 40.12 15.6564 39.8 16.0264 39.19V40H16.7764V36.85C16.7764 35.6 16.0864 34.71 14.6764 34.71ZM14.3364 39.46C13.6064 39.46 13.0464 39.08 13.0464 38.44C13.0464 37.82 13.6964 37.38 14.4664 37.38C15.0264 37.38 15.5564 37.46 16.0264 37.59V38.38C15.8264 39.11 15.0164 39.46 14.3364 39.46ZM22.3288 34.83V35.72C21.9288 35.09 21.2688 34.71 20.4488 34.71C19.0588 34.71 18.0688 35.72 18.0688 37.16C18.0688 38.6 19.0588 39.62 20.4488 39.62C21.2688 39.62 21.9288 39.24 22.3288 38.61V39.45C22.3288 40.46 21.6288 41.05 20.4388 41.05C19.7988 41.05 19.1788 40.82 18.7788 40.44L18.4488 41.03C18.9188 41.43 19.6988 41.72 20.5388 41.72C22.0288 41.72 23.0788 40.78 23.0788 39.45V34.83H22.3288ZM20.5888 38.95C19.5788 38.95 18.8588 38.21 18.8588 37.16C18.8588 36.12 19.5788 35.38 20.5888 35.38C21.6088 35.38 22.3288 36.12 22.3288 37.16C22.3288 38.21 21.6088 38.95 20.5888 38.95Z" fill="#9B9B9B"/>
<path d="M26.4558 24.5187L26.4583 24.542L26.4629 24.565C26.4867 24.6823 26.5 24.796 26.5 24.9091C26.5 25.8094 25.8081 26.5 25 26.5H15H5C4.19186 26.5 3.5 25.8094 3.5 24.9091C3.5 24.796 3.51331 24.6823 3.53706 24.565L3.54172 24.542L3.5442 24.5187L5.4972 6.14375L5.5 6.11741V6.09091C5.5 5.19065 6.19186 4.5 7 4.5H15H23C23.8081 4.5 24.5 5.19065 24.5 6.09091V6.11741L24.5028 6.14375L26.4558 24.5187ZM20.5 10.2727V9.44368C21.1009 9.08516 21.5 8.41815 21.5 7.65909C21.5 6.53849 20.6249 5.59091 19.5 5.59091C18.3751 5.59091 17.5 6.53849 17.5 7.65909V10.2727C17.5 11.7469 16.3571 12.9091 15 12.9091C13.6429 12.9091 12.5 11.7469 12.5 10.2727V7.65909C12.5 6.53849 11.6249 5.59091 10.5 5.59091C9.37514 5.59091 8.5 6.53849 8.5 7.65909C8.5 8.41815 8.89908 9.08516 9.5 9.44368V10.2727C9.5 13.41 11.9461 16 15 16C18.0539 16 20.5 13.41 20.5 10.2727Z" stroke="#9B9B9B"/>
</svg>
