<svg width="40" height="42" viewBox="0 0 45 42" fill="none" xmlns="http://www.w3.org/2000/svg">
<path d="M5.72 33.87V33.13H0.79V40H1.58V36.87H5.31V36.13H1.58V33.87H5.72ZM8.95375 34.71C8.45375 34.71 7.83375 34.84 7.09375 35.21L7.39375 35.82C7.86375 35.58 8.38375 35.35 8.90375 35.35C10.0238 35.35 10.3038 36.15 10.3038 36.85V37.04C9.77375 36.87 9.18375 36.75 8.62375 36.75C7.51375 36.75 6.59375 37.44 6.59375 38.47C6.59375 39.49 7.39375 40.12 8.48375 40.12C9.16375 40.12 9.93375 39.8 10.3038 39.19V40H11.0538V36.85C11.0538 35.6 10.3638 34.71 8.95375 34.71ZM8.61375 39.46C7.88375 39.46 7.32375 39.08 7.32375 38.44C7.32375 37.82 7.97375 37.38 8.74375 37.38C9.30375 37.38 9.83375 37.46 10.3038 37.59V38.38C10.1038 39.11 9.29375 39.46 8.61375 39.46ZM14.2962 40H15.0162L17.1862 34.83H16.3462L14.6562 39.12L12.9362 34.83H12.0962L14.2962 40ZM20.4256 40.12C21.8756 40.12 23.0956 38.88 23.0956 37.41C23.0956 35.94 21.8756 34.71 20.4256 34.71C18.9756 34.71 17.7456 35.94 17.7456 37.41C17.7456 38.88 18.9756 40.12 20.4256 40.12ZM20.4256 39.45C19.3956 39.45 18.5356 38.52 18.5356 37.41C18.5356 36.31 19.3956 35.38 20.4256 35.38C21.4456 35.38 22.3056 36.31 22.3056 37.41C22.3056 38.52 21.4456 39.45 20.4256 39.45ZM25.1542 35.84V34.83H24.4042V40H25.1542V37.11C25.1542 36.1 25.9842 35.38 27.1542 35.38V34.71C26.2042 34.71 25.4642 35.15 25.1542 35.84ZM28.5616 33.89C28.8316 33.89 29.0516 33.66 29.0516 33.39C29.0516 33.13 28.8316 32.9 28.5616 32.9C28.2816 32.9 28.0616 33.13 28.0616 33.39C28.0616 33.66 28.2816 33.89 28.5616 33.89ZM28.1816 40H28.9316V34.83H28.1816V40ZM32.7077 39.24C32.5977 39.36 32.3977 39.45 32.1677 39.45C31.8677 39.45 31.6077 39.18 31.6077 38.8V35.5H32.8777V34.83H31.6077V33.41H30.8577V34.83H30.0477V35.5H30.8577V38.8C30.8577 39.57 31.3777 40.12 32.1177 40.12C32.4677 40.12 32.8077 40 33.0777 39.79L32.7077 39.24ZM36.4689 39.45C35.4489 39.45 34.7389 38.71 34.6289 37.7H38.8589C38.8589 35.89 37.9689 34.71 36.4089 34.71C35.0189 34.71 33.8589 35.86 33.8589 37.4C33.8589 38.99 35.0989 40.12 36.4789 40.12C37.1989 40.12 38.1089 39.81 38.5589 39.32L38.0989 38.83C37.7789 39.18 37.0789 39.45 36.4689 39.45ZM36.4389 35.38C37.4689 35.38 38.0189 36.1 38.1189 37.03H34.6389C34.7789 36.03 35.5189 35.38 36.4389 35.38ZM41.9162 40.12C42.9862 40.12 43.8062 39.51 43.8062 38.56C43.8062 37.58 42.9462 37.3 42.1162 37.04C41.1562 36.73 40.7762 36.59 40.7762 36.14C40.7762 35.64 41.2562 35.38 41.8362 35.38C42.2962 35.38 42.8062 35.54 43.3262 35.87L43.6862 35.29C43.1362 34.93 42.4762 34.71 41.8362 34.71C40.8062 34.71 40.0262 35.29 40.0262 36.23C40.0262 36.97 40.5062 37.34 41.7562 37.7C42.4562 37.9 43.0562 38.08 43.0562 38.64C43.0562 39.13 42.5962 39.45 41.9162 39.45C41.3462 39.45 40.7562 39.23 40.1662 38.8L39.7762 39.35C40.3962 39.85 41.1962 40.12 41.9162 40.12Z" fill="#9B9B9B"/>
<path fill-rule="evenodd" clip-rule="evenodd" d="M22.079 27L20.1826 25.2736C13.4469 19.1657 9 15.1373 9 10.1935C9 6.16512 12.1651 3 16.1935 3C18.4692 3 20.6534 4.0594 22.079 5.73351C23.5046 4.0594 25.6888 3 27.9646 3C31.9929 3 35.158 6.16512 35.158 10.1935C35.158 15.1373 30.7112 19.1657 23.9755 25.2866L22.079 27Z" stroke="#9B9B9B"/>
</svg>
