<svg width="30" height="42" viewBox="0 0 30 42" fill="none" xmlns="http://www.w3.org/2000/svg">
<path d="M6.39 33.13V35.93H2.96V33.13H1.71V40H2.96V37.07H6.39V40H7.64V33.13H6.39ZM11.5235 40.12C13.0235 40.12 14.2935 38.88 14.2935 37.41C14.2935 35.94 13.0235 34.71 11.5235 34.71C10.0235 34.71 8.75352 35.94 8.75352 37.41C8.75352 38.88 10.0235 40.12 11.5235 40.12ZM11.5235 39.08C10.6635 39.08 9.94352 38.32 9.94352 37.41C9.94352 36.51 10.6635 35.75 11.5235 35.75C12.3735 35.75 13.0935 36.51 13.0935 37.41C13.0935 38.32 12.3735 39.08 11.5235 39.08ZM21.3216 34.71C20.5516 34.71 19.9016 35.09 19.6516 35.69C19.3316 35.08 18.7316 34.71 18.0016 34.71C17.3516 34.71 16.8216 35.03 16.5616 35.53V34.83H15.3416V40H16.5616V36.83C16.5616 36.2 17.0316 35.75 17.6916 35.75C18.2916 35.75 18.7016 36.23 18.7016 36.91V40H19.8916V36.83C19.8916 36.2 20.3516 35.75 21.0216 35.75C21.6116 35.75 22.0216 36.23 22.0216 36.91V40H23.2116V36.71C23.2116 35.54 22.4016 34.71 21.3216 34.71ZM26.9413 39.04C26.2013 39.04 25.6613 38.54 25.5113 37.83H29.4113C29.4113 35.92 28.4813 34.71 26.8813 34.71C25.4113 34.71 24.2513 35.85 24.2513 37.4C24.2513 38.99 25.4713 40.12 26.9513 40.12C27.7013 40.12 28.6013 39.8 29.0513 39.32L28.2813 38.52C27.9913 38.82 27.4213 39.04 26.9413 39.04ZM26.9313 35.79C27.6613 35.79 28.1013 36.25 28.2413 36.9H25.5213C25.7013 36.22 26.2513 35.79 26.9313 35.79Z" fill="#DB3022"/>
<path fill-rule="evenodd" clip-rule="evenodd" d="M12.2941 27V18.5294H17.9412V27H25V15.7059H29.2353L15.1176 3L1 15.7059H5.23529V27H12.2941Z" fill="#DB3022"/>
</svg>
