<svg width="31" height="42" viewBox="0 0 31 42" fill="none" xmlns="http://www.w3.org/2000/svg">
<path d="M15.1408 27L15.1408 26.5H15.1408L15.1408 27ZM5 21.5577L4.50006 21.5502L4.49772 21.705L4.58334 21.8341L5 21.5577ZM25.2817 21.5577L25.6984 21.8341L25.784 21.705L25.7816 21.5502L25.2817 21.5577ZM15.1408 3.5C17.6703 3.5 19.7113 5.54093 19.7113 8.07042H20.7113C20.7113 4.98865 18.2226 2.5 15.1408 2.5V3.5ZM19.7113 8.07042C19.7113 10.5999 17.6703 12.6408 15.1408 12.6408V13.6408C18.2226 13.6408 20.7113 11.1522 20.7113 8.07042H19.7113ZM15.1408 12.6408C12.6113 12.6408 10.5704 10.5999 10.5704 8.07042H9.57041C9.57041 11.1522 12.0591 13.6408 15.1408 13.6408V12.6408ZM10.5704 8.07042C10.5704 5.54093 12.6113 3.5 15.1408 3.5V2.5C12.0591 2.5 9.57041 4.98865 9.57041 8.07042H10.5704ZM15.1408 26.5C11.2297 26.5 7.57865 24.5406 5.41666 21.2813L4.58334 21.8341C6.9306 25.3727 10.8945 27.5 15.1408 27.5L15.1408 26.5ZM5.49994 21.5653C5.50991 20.904 5.84489 20.2784 6.47245 19.6902C7.10211 19.1002 7.99222 18.5826 9.01476 18.1549C11.0619 17.2987 13.519 16.8521 15.1408 16.8521V15.8521C13.3824 15.8521 10.7945 16.3266 8.6289 17.2324C7.5451 17.6857 6.53697 18.2593 5.78865 18.9606C5.0382 19.6638 4.51544 20.5297 4.50006 21.5502L5.49994 21.5653ZM15.1408 16.8521C16.7541 16.8521 19.2113 17.2986 21.2608 18.155C22.2845 18.5827 23.1762 19.1004 23.8072 19.6906C24.4362 20.2789 24.7718 20.9045 24.7817 21.5653L25.7816 21.5502C25.7662 20.5293 25.242 19.6633 24.4903 18.9603C23.7407 18.2591 22.731 17.6855 21.6463 17.2323C19.4789 16.3267 16.891 15.8521 15.1408 15.8521V16.8521ZM24.865 21.2813C22.703 24.5406 19.052 26.5 15.1408 26.5L15.1408 27.5C19.3872 27.5 23.3511 25.3727 25.6984 21.8341L24.865 21.2813Z" fill="#9B9B9B"/>
<path d="M0.79 40H1.57V37.53H3.58C5 37.53 6.11 36.62 6.11 35.33C6.11 34.04 5 33.13 3.58 33.13H0.79V40ZM1.57 36.79V33.87H3.44C4.56 33.87 5.32 34.41 5.32 35.33C5.32 36.25 4.56 36.79 3.44 36.79H1.57ZM8.01555 35.84V34.83H7.26555V40H8.01555V37.11C8.01555 36.1 8.84555 35.38 10.0155 35.38V34.71C9.06555 34.71 8.32555 35.15 8.01555 35.84ZM13.287 40.12C14.737 40.12 15.957 38.88 15.957 37.41C15.957 35.94 14.737 34.71 13.287 34.71C11.837 34.71 10.607 35.94 10.607 37.41C10.607 38.88 11.837 40.12 13.287 40.12ZM13.287 39.45C12.257 39.45 11.397 38.52 11.397 37.41C11.397 36.31 12.257 35.38 13.287 35.38C14.307 35.38 15.167 36.31 15.167 37.41C15.167 38.52 14.307 39.45 13.287 39.45ZM18.3655 34.12C18.3655 33.74 18.6255 33.47 18.9255 33.47C19.1555 33.47 19.3555 33.56 19.4655 33.68L19.8355 33.13C19.5655 32.92 19.2255 32.8 18.8755 32.8C18.1355 32.8 17.6155 33.35 17.6155 34.12V34.83H16.8055V35.5H17.6155V40H18.3655V35.5H19.6355V34.83H18.3655V34.12ZM21.0714 33.89C21.3414 33.89 21.5614 33.66 21.5614 33.39C21.5614 33.13 21.3414 32.9 21.0714 32.9C20.7914 32.9 20.5714 33.13 20.5714 33.39C20.5714 33.66 20.7914 33.89 21.0714 33.89ZM20.6914 40H21.4414V34.83H20.6914V40ZM22.9475 40H23.6975V33.01H22.9475V40ZM27.5431 39.45C26.5231 39.45 25.8131 38.71 25.7031 37.7H29.9331C29.9331 35.89 29.0431 34.71 27.4831 34.71C26.0931 34.71 24.9331 35.86 24.9331 37.4C24.9331 38.99 26.1731 40.12 27.5531 40.12C28.2731 40.12 29.1831 39.81 29.6331 39.32L29.1731 38.83C28.8531 39.18 28.1531 39.45 27.5431 39.45ZM27.5131 35.38C28.5431 35.38 29.0931 36.1 29.1931 37.03H25.7131C25.8531 36.03 26.5931 35.38 27.5131 35.38Z" fill="#9B9B9B"/>
</svg>
