<svg width="30" height="42" viewBox="0 0 30 42" fill="none" xmlns="http://www.w3.org/2000/svg">
<path d="M5.17 40.11C6.77 40.11 7.59 39.22 7.59 38.13C7.59 36.92 6.65 36.45 5.34 36.14C4.17 35.86 3.49 35.61 3.49 34.9C3.49 34.27 4.11 33.71 4.96 33.71C5.68 33.71 6.36 34.04 6.93 34.59L7.41 33.98C6.78 33.4 6.02 33 5 33C3.68 33 2.7 33.86 2.7 34.96C2.7 36.15 3.57 36.58 4.95 36.9C6.15 37.18 6.8 37.47 6.8 38.2C6.8 38.82 6.26 39.4 5.2 39.4C4.24 39.4 3.53 38.99 2.95 38.41L2.46 39.02C3.15 39.7 4.04 40.11 5.17 40.11ZM11.3528 34.71C10.6228 34.71 9.95281 35.11 9.65281 35.66V33.01H8.90281V40H9.65281V36.71C9.65281 35.99 10.3828 35.38 11.2528 35.38C12.0128 35.38 12.5428 35.97 12.5428 36.81V40H13.2928V36.71C13.2928 35.54 12.4928 34.71 11.3528 34.71ZM17.2108 40.12C18.6608 40.12 19.8808 38.88 19.8808 37.41C19.8808 35.94 18.6608 34.71 17.2108 34.71C15.7608 34.71 14.5308 35.94 14.5308 37.41C14.5308 38.88 15.7608 40.12 17.2108 40.12ZM17.2108 39.45C16.1808 39.45 15.3208 38.52 15.3208 37.41C15.3208 36.31 16.1808 35.38 17.2108 35.38C18.2308 35.38 19.0908 36.31 19.0908 37.41C19.0908 38.52 18.2308 39.45 17.2108 39.45ZM23.8194 34.71C22.9894 34.71 22.3294 35.12 21.9394 35.8V34.83H21.1894V41.72H21.9394V39.03C22.3294 39.71 22.9894 40.12 23.8194 40.12C25.1794 40.12 26.1994 39 26.1994 37.41C26.1994 35.83 25.1794 34.71 23.8194 34.71ZM23.6794 39.45C22.6594 39.45 21.9394 38.6 21.9394 37.41C21.9394 36.22 22.6594 35.38 23.6794 35.38C24.6894 35.38 25.4094 36.22 25.4094 37.41C25.4094 38.6 24.6894 39.45 23.6794 39.45Z" fill="#9B9B9B"/>
<path d="M3 5.4H2.5V5.9H3V5.4ZM5.4 5.4L5.85176 5.18573L5.71624 4.9H5.4V5.4ZM9.72 14.508L10.1579 14.7493L10.2815 14.5251L10.1718 14.2937L9.72 14.508ZM8.1 17.448L8.53417 17.6961L8.53792 17.6893L8.1 17.448ZM24.6 21V21.5H25.1V21H24.6ZM24.6 18.6H25.1V18.1H24.6V18.6ZM10.404 18.3L9.91893 18.1787L9.904 18.2384V18.3H10.404ZM10.44 18.156L10.0023 17.9143L9.97075 17.9714L9.95493 18.0347L10.44 18.156ZM11.52 16.2V15.7H11.2249L11.0823 15.9583L11.52 16.2ZM22.56 14.964L22.1222 14.7225L22.1216 14.7236L22.56 14.964ZM26.856 7.176L27.2938 7.41751L27.2958 7.41379L26.856 7.176ZM25.8 5.4L25.8012 4.9H25.8V5.4ZM8.052 5.4L7.59949 5.61268L7.73453 5.9H8.052V5.4ZM6.924 3L7.37651 2.78732L7.24147 2.5H6.924V3ZM10.2 21.7C8.60061 21.7 7.31201 23.0071 7.31201 24.6H8.31201C8.31201 23.5529 9.15941 22.7 10.2 22.7V21.7ZM7.31201 24.6C7.31201 26.1929 8.60061 27.5 10.2 27.5V26.5C9.15941 26.5 8.31201 25.6471 8.31201 24.6H7.31201ZM10.2 27.5C11.7962 27.5 13.1 26.1961 13.1 24.6H12.1C12.1 25.6439 11.2439 26.5 10.2 26.5V27.5ZM13.1 24.6C13.1 23.0039 11.7962 21.7 10.2 21.7V22.7C11.2439 22.7 12.1 23.5561 12.1 24.6H13.1ZM2.5 3V5.4H3.5V3H2.5ZM3 5.9H5.4V4.9H3V5.9ZM4.94824 5.61427L9.26824 14.7223L10.1718 14.2937L5.85176 5.18573L4.94824 5.61427ZM9.28208 14.2667L7.66208 17.2067L8.53792 17.6893L10.1579 14.7493L9.28208 14.2667ZM7.66588 17.1999C7.43007 17.6126 7.3 18.0943 7.3 18.6H8.3C8.3 18.2657 8.38593 17.9554 8.53412 17.6961L7.66588 17.1999ZM7.3 18.6C7.3 20.1961 8.60386 21.5 10.2 21.5V20.5C9.15614 20.5 8.3 19.6439 8.3 18.6H7.3ZM10.2 21.5H24.6V20.5H10.2V21.5ZM25.1 21V18.6H24.1V21H25.1ZM24.6 18.1H10.704V19.1H24.6V18.1ZM10.704 18.1C10.8121 18.1 10.904 18.1919 10.904 18.3H9.904C9.904 18.7441 10.2599 19.1 10.704 19.1V18.1ZM10.8891 18.4213L10.9251 18.2773L9.95493 18.0347L9.91893 18.1787L10.8891 18.4213ZM10.8777 18.3977L11.9577 16.4417L11.0823 15.9583L10.0023 17.9143L10.8777 18.3977ZM11.52 16.7H20.46V15.7H11.52V16.7ZM20.46 16.7C21.5457 16.7 22.5041 16.1058 22.9984 15.2044L22.1216 14.7236C21.7999 15.3102 21.1744 15.7 20.46 15.7V16.7ZM22.9978 15.2055L27.2938 7.4175L26.4182 6.9345L22.1222 14.7225L22.9978 15.2055ZM27.2958 7.41379C27.5809 6.88649 27.5679 6.24816 27.2615 5.73293L26.402 6.244C26.5285 6.4568 26.5339 6.72043 26.4162 6.93821L27.2958 7.41379ZM27.2615 5.73293C26.9552 5.2177 26.4006 4.90138 25.8012 4.9L25.7988 5.9C26.0464 5.90057 26.2755 6.03121 26.402 6.244L27.2615 5.73293ZM25.8 4.9H8.052V5.9H25.8V4.9ZM8.50451 5.18732L7.37651 2.78732L6.47149 3.21268L7.59949 5.61268L8.50451 5.18732ZM6.924 2.5H3V3.5H6.924V2.5ZM22.2 21.7C20.6006 21.7 19.312 23.0071 19.312 24.6H20.312C20.312 23.5529 21.1594 22.7 22.2 22.7V21.7ZM19.312 24.6C19.312 26.1929 20.6006 27.5 22.2 27.5V26.5C21.1594 26.5 20.312 25.6471 20.312 24.6H19.312ZM22.2 27.5C23.7962 27.5 25.1 26.1961 25.1 24.6H24.1C24.1 25.6439 23.2439 26.5 22.2 26.5V27.5ZM25.1 24.6C25.1 23.0039 23.7962 21.7 22.2 21.7V22.7C23.2439 22.7 24.1 23.5561 24.1 24.6H25.1Z" fill="#9B9B9B"/>
</svg>
