<svg width="13" height="14" viewBox="0 0 13 14" fill="none" xmlns="http://www.w3.org/2000/svg">
<path fill-rule="evenodd" clip-rule="evenodd" d="M0 13.3594H2.36364V5.55937H0V13.3594ZM13 6.20937C13 5.49437 12.4682 4.90937 11.8182 4.90937H8.08955L8.65091 1.93887L8.66864 1.73087C8.66864 1.46437 8.56818 1.21737 8.40864 1.04187L7.78227 0.359375L3.89409 4.64287C3.67545 4.87687 3.54545 5.20187 3.54545 5.55937V12.0594C3.54545 12.7744 4.07727 13.3594 4.72727 13.3594H10.0455C10.5359 13.3594 10.9555 13.0344 11.1327 12.5664L12.9173 7.98387C12.9705 7.83437 13 7.67837 13 7.50937V6.26787L12.9941 6.26137L13 6.20937Z" fill="#9B9B9B"/>
</svg>
